<svg width="989" height="935" viewBox="0 0 989 935" fill="none" xmlns="http://www.w3.org/2000/svg">
<rect width="988.46" height="934.46" rx="467.23" fill="white"/>
<path d="M244.935 372.031V321.321H483.855V372.031H394.793V612.23H333.998V372.031H244.935ZM523.202 612.23V321.321H637.975C660.039 321.321 678.837 325.535 694.367 333.963C709.897 342.297 721.734 353.897 729.878 368.764C738.117 383.537 742.236 400.582 742.236 419.901C742.236 439.219 738.07 456.264 729.736 471.037C721.403 485.81 709.329 497.315 693.515 505.554C677.795 513.793 658.761 517.912 636.412 517.912H563.259V468.622H626.469C638.306 468.622 648.06 466.586 655.73 462.514C663.496 458.348 669.272 452.618 673.06 445.327C676.943 437.94 678.884 429.465 678.884 419.901C678.884 410.242 676.943 401.814 673.06 394.617C669.272 387.325 663.496 381.69 655.73 377.713C647.965 373.641 638.117 371.605 626.185 371.605H584.708V612.23H523.202Z" fill="black"/>
</svg>
